<mxfile host="app.diagrams.net" modified="2024-04-01T15:02:25.421Z" agent="Mozilla/5.0 (Macintosh; Intel Mac OS X 10_15_7) AppleWebKit/537.36 (KHTML, like Gecko) Chrome/116.0.0.0 Safari/537.36" etag="82DlzIe9xcqzTcHAQZuE" version="24.2.0" type="device">
  <diagram name="第 1 页" id="BcIzWxUEE7DKoIyRU4ss">
    <mxGraphModel dx="954" dy="515" grid="1" gridSize="10" guides="1" tooltips="1" connect="1" arrows="1" fold="1" page="1" pageScale="1" pageWidth="3300" pageHeight="4681" math="0" shadow="0">
      <root>
        <mxCell id="0" />
        <mxCell id="1" parent="0" />
        <mxCell id="l487gDq7xmGsUWFIV58R-4" value="u64" style="rounded=0;whiteSpace=wrap;html=1;fillColor=#f5f5f5;fontColor=#333333;strokeColor=#666666;" vertex="1" parent="1">
          <mxGeometry x="240" y="200" width="90" height="60" as="geometry" />
        </mxCell>
        <mxCell id="l487gDq7xmGsUWFIV58R-5" value="u64" style="rounded=0;whiteSpace=wrap;html=1;fillColor=#f5f5f5;fontColor=#333333;strokeColor=#666666;" vertex="1" parent="1">
          <mxGeometry x="330" y="200" width="90" height="60" as="geometry" />
        </mxCell>
        <mxCell id="l487gDq7xmGsUWFIV58R-6" value="u64" style="rounded=0;whiteSpace=wrap;html=1;fillColor=#f5f5f5;fontColor=#333333;strokeColor=#666666;" vertex="1" parent="1">
          <mxGeometry x="420" y="200" width="90" height="60" as="geometry" />
        </mxCell>
        <mxCell id="l487gDq7xmGsUWFIV58R-7" value="u64" style="rounded=0;whiteSpace=wrap;html=1;fillColor=#f5f5f5;fontColor=#333333;strokeColor=#666666;" vertex="1" parent="1">
          <mxGeometry x="510" y="200" width="90" height="60" as="geometry" />
        </mxCell>
        <mxCell id="l487gDq7xmGsUWFIV58R-9" value="" style="shape=curlyBracket;whiteSpace=wrap;html=1;rounded=1;labelPosition=left;verticalLabelPosition=middle;align=right;verticalAlign=middle;direction=south;" vertex="1" parent="1">
          <mxGeometry x="240" y="160" width="90" height="40" as="geometry" />
        </mxCell>
        <mxCell id="l487gDq7xmGsUWFIV58R-10" value="8个字节，单个元素的地址范围" style="text;html=1;align=center;verticalAlign=middle;whiteSpace=wrap;rounded=0;" vertex="1" parent="1">
          <mxGeometry x="185" y="130" width="200" height="30" as="geometry" />
        </mxCell>
        <mxCell id="l487gDq7xmGsUWFIV58R-12" value="" style="shape=curlyBracket;whiteSpace=wrap;html=1;rounded=1;flipH=1;labelPosition=right;verticalLabelPosition=middle;align=left;verticalAlign=middle;direction=north;" vertex="1" parent="1">
          <mxGeometry x="240" y="260" width="360" height="50" as="geometry" />
        </mxCell>
        <mxCell id="l487gDq7xmGsUWFIV58R-13" value="32个字节，[u64, 4]&lt;span style=&quot;white-space: pre;&quot;&gt;&#x9;&lt;/span&gt;的地址范围" style="text;html=1;align=center;verticalAlign=middle;whiteSpace=wrap;rounded=0;" vertex="1" parent="1">
          <mxGeometry x="330" y="310" width="210" height="30" as="geometry" />
        </mxCell>
      </root>
    </mxGraphModel>
  </diagram>
</mxfile>
